<?xml version="1.0" encoding="UTF-8"?>
<svg version="1.1" xmlns="http://www.w3.org/2000/svg" width="500" height="500">
<path d="M0 0 C2 1 2 1 2.81640625 3.37890625 C4.90680247 12.29865975 5.70464076 20.8807836 6 30 C6.04125 31.08796875 6.0825 32.1759375 6.125 33.296875 C6.2494698 39.30254268 5.68046753 44.84445566 4.4375 50.72265625 C3.90567002 53.1045234 3.90567002 53.1045234 4 56 C6.33214148 57.20628008 8.49642139 58.1654738 11 59 C11 59.66 11 60.32 11 61 C10.34 61 9.68 61 9 61 C9.33 61.99 9.66 62.98 10 64 C4.2278697 67.12132419 -1.17665388 69.10406064 -7.5625 70.5625 C-8.46508545 70.77229492 -9.3676709 70.98208984 -10.29760742 71.19824219 C-34.88775638 76.68008218 -59.73036566 77.18907187 -84.80517578 77.18530273 C-87.58746898 77.18522183 -90.36959627 77.19212099 -93.15185547 77.20581055 C-120.54892556 77.33845783 -148.31002329 76.66950681 -174.9375 69.5625 C-176.04714111 69.27282349 -176.04714111 69.27282349 -177.17919922 68.97729492 C-181.56944021 67.72520269 -184.71145583 66.18185476 -188 63 C-188.8125 60.75 -188.8125 60.75 -189 59 C-188.01 59 -187.02 59 -186 59 C-186 58.34 -186 57.68 -186 57 C-184.35 57.33 -182.7 57.66 -181 58 C-181 57.34 -181 56.68 -181 56 C-180.40574219 56.18175781 -179.81148437 56.36351562 -179.19921875 56.55078125 C-177.95591797 56.92783203 -177.95591797 56.92783203 -176.6875 57.3125 C-175.88699219 57.55613281 -175.08648437 57.79976563 -174.26171875 58.05078125 C-173.18535156 58.36402344 -172.10898438 58.67726563 -171 59 C-169.81458618 59.34768433 -169.81458618 59.34768433 -168.60522461 59.70239258 C-118.97826203 73.814768 -50.3143056 74.57020255 -1 57 C-1.78375 56.505 -2.5675 56.01 -3.375 55.5 C-6.69790814 52.33532558 -7.82185866 49.50000522 -8 45 C-7.01817755 38.71431197 -4.29233549 33.58033505 -1.14453125 28.140625 C3.11094721 20.18157314 2.3823387 11.79752843 -0.0625 3.3125 C-0.371875 2.549375 -0.68125 1.78625 -1 1 C-0.67 0.67 -0.34 0.34 0 0 Z " fill="#2F2F2F" transform="translate(339,206)"/>
<path d="M0 0 C3.152051 0.01073288 6.30353234 0.00002437 9.45556641 -0.01269531 C22.30789133 -0.02021129 34.89725449 0.70416743 47.65478516 2.26074219 C47.45264404 3.0094458 47.25050293 3.75814941 47.04223633 4.52954102 C46.60929068 7.58143955 46.8578599 8.41136305 48.45556641 10.95996094 C48.85582031 11.61158203 49.25607422 12.26320312 49.66845703 12.93457031 C50.09707031 13.59908203 50.52568359 14.26359375 50.96728516 14.94824219 C51.38429688 15.62435547 51.80130859 16.30046875 52.23095703 16.99707031 C53.87992613 19.64015475 55.44545407 22.0514111 57.65478516 24.26074219 C57.65478516 25.25074219 57.65478516 26.24074219 57.65478516 27.26074219 C54.57033921 29.31703948 53.93201669 29.51182998 50.44862366 29.5214386 C49.59203659 29.52852341 48.73544952 29.53560822 47.85290527 29.54290771 C46.91619995 29.5404303 45.97949463 29.53795288 45.0144043 29.53540039 C43.53108864 29.54306679 43.53108864 29.54306679 42.01780701 29.55088806 C38.74179062 29.56481317 35.46598391 29.5638251 32.18994141 29.56152344 C29.91694561 29.56540873 27.64395054 29.56974305 25.37095642 29.57450867 C20.60364429 29.58197714 15.8364062 29.58167502 11.0690918 29.57641602 C4.95438353 29.57062028 -1.16002195 29.58755208 -7.27468014 29.61076069 C-11.96979042 29.62547942 -16.66482747 29.62637226 -21.35995674 29.62325096 C-23.61464602 29.6237651 -25.8693393 29.6290201 -28.12400627 29.63906288 C-31.27468521 29.65137386 -34.4247703 29.64466748 -37.57543945 29.63305664 C-38.51012054 29.64070038 -39.44480164 29.64834412 -40.4078064 29.65621948 C-46.75623876 29.60440481 -46.75623876 29.60440481 -49.95582581 27.73747253 C-50.41432419 27.25015152 -50.87282257 26.76283051 -51.34521484 26.26074219 C-50.85021484 24.77574219 -50.85021484 24.77574219 -50.34521484 23.26074219 C-49.68521484 23.26074219 -49.02521484 23.26074219 -48.34521484 23.26074219 C-47.96236328 21.97296875 -47.96236328 21.97296875 -47.57177734 20.65917969 C-46.28843313 17.10341705 -44.66306136 14.12381972 -42.72021484 10.88574219 C-42.08857422 9.82613281 -41.45693359 8.76652344 -40.80615234 7.67480469 C-40.08298828 6.47984375 -40.08298828 6.47984375 -39.34521484 5.26074219 C-40.00521484 4.27074219 -40.66521484 3.28074219 -41.34521484 2.26074219 C-27.53223967 0.5753903 -13.91235027 -0.05614172 0 0 Z M-22.34521484 3.26074219 C-20.86021484 4.25074219 -20.86021484 4.25074219 -19.34521484 5.26074219 C-16.43509546 7.87984964 -14.56480803 9.68879522 -13.14990234 13.37402344 C-11.59152002 16.60837063 -11.59152002 16.60837063 -8.00927734 17.10058594 C-6.66414374 17.16650084 -5.31696202 17.19713622 -3.97021484 17.19824219 C-2.90915527 17.22325806 -2.90915527 17.22325806 -1.82666016 17.2487793 C-0.37305663 17.2724191 1.08089677 17.27993275 2.53466797 17.27148438 C4.50980953 17.26147675 6.48500909 17.30959827 8.45947266 17.36230469 C11.74148546 17.32509366 14.51068267 17.20730254 17.65478516 16.26074219 C19.38999242 14.30699497 20.1233678 12.65966782 20.96728516 10.19824219 C21.89420997 7.58599953 23.29831569 6.62901478 25.65478516 5.26074219 C26.64478516 4.60074219 27.63478516 3.94074219 28.65478516 3.26074219 C11.54872092 2.23948462 -5.2416866 2.17480389 -22.34521484 3.26074219 Z M41.65478516 8.26074219 C39.37743506 11.07584212 39.37743506 11.07584212 39.65478516 14.26074219 C33.38478516 14.26074219 27.11478516 14.26074219 20.65478516 14.26074219 C20.32478516 15.91074219 19.99478516 17.56074219 19.65478516 19.26074219 C18.70603516 19.52886719 17.75728516 19.79699219 16.77978516 20.07324219 C13.40211242 21.01060806 13.40211242 21.01060806 11.65478516 24.26074219 C9.77539062 24.69311523 9.77539062 24.69311523 7.52197266 24.77246094 C6.31347656 24.82563477 6.31347656 24.82563477 5.08056641 24.87988281 C4.23880859 24.90244141 3.39705078 24.925 2.52978516 24.94824219 C1.25554687 24.99948242 1.25554687 24.99948242 -0.04443359 25.05175781 C-2.1442259 25.13433391 -4.24470049 25.19921197 -6.34521484 25.26074219 C-6.49796875 24.30941406 -6.49796875 24.30941406 -6.65380859 23.33886719 C-6.88197266 22.65308594 -7.11013672 21.96730469 -7.34521484 21.26074219 C-10.3413743 19.95617659 -10.3413743 19.95617659 -13.34521484 19.26074219 C-13.67521484 17.61074219 -14.00521484 15.96074219 -14.34521484 14.26074219 C-20.28521484 13.93074219 -26.22521484 13.60074219 -32.34521484 13.26074219 C-33.00521484 11.94074219 -33.66521484 10.62074219 -34.34521484 9.26074219 C-38.09897636 10.51199603 -38.58594773 11.82598259 -40.34521484 15.26074219 C-40.34521484 15.92074219 -40.34521484 16.58074219 -40.34521484 17.26074219 C-38.17647233 16.75470227 -36.34553858 16.26090405 -34.34521484 15.26074219 C-35.4677987 18.22028145 -36.15684518 19.15310238 -38.97021484 20.76074219 C-39.75396484 21.25574219 -40.53771484 21.75074219 -41.34521484 22.26074219 C-41.34521484 23.58074219 -41.34521484 24.90074219 -41.34521484 26.26074219 C-11.64521484 26.26074219 18.05478516 26.26074219 48.65478516 26.26074219 C47.61383485 22.02955249 47.61383485 22.02955249 44.59228516 19.51074219 C43.62291016 18.76824219 42.65353516 18.02574219 41.65478516 17.26074219 C41.98478516 16.93074219 42.31478516 16.60074219 42.65478516 16.26074219 C44.30478516 16.92074219 45.95478516 17.58074219 47.65478516 18.26074219 C46.28506875 14.26573601 44.39756094 11.46064727 41.65478516 8.26074219 Z " fill="#2D2D2E" transform="translate(248.34521484375,170.7392578125)"/>
<path d="M0 0 C4.79451965 0.63085785 9.12741952 1.96850949 13.625 3.6875 C14.32141602 3.95151611 15.01783203 4.21553223 15.73535156 4.48754883 C31.96326673 10.7672242 31.96326673 10.7672242 38 16 C38 16.66 38 17.32 38 18 C34.86833245 18.9738285 32.53067028 18.98479191 29.296875 18.51171875 C28.39839844 18.38216797 27.49992187 18.25261719 26.57421875 18.11914062 C25.17623047 17.90547852 25.17623047 17.90547852 23.75 17.6875 C22.83347656 17.55666016 21.91695312 17.42582031 20.97265625 17.29101562 C15.54517052 16.48966787 10.29819089 15.42404426 5 14 C5.88212286 15.44595397 6.78139719 16.88145098 7.6875 18.3125 C8.18636719 19.11300781 8.68523437 19.91351563 9.19921875 20.73828125 C12.40621273 24.76615439 16.39888382 26.26344986 21.1875 27.8125 C26.19015274 29.55902829 30.45448701 31.875848 34.90625 34.73046875 C55.09707203 46.97303808 100.14025498 39.24493218 123 37 C118.96389368 41.49567787 113.82971371 40.9744763 108.1015625 41.31640625 C106.27627238 41.40342008 104.45072823 41.48522218 102.625 41.5625 C101.64966309 41.6042334 100.67432617 41.6459668 99.66943359 41.68896484 C86.91204175 42.20076458 74.25710818 42.06532925 61.5 41.5625 C59.99493896 41.50376709 59.99493896 41.50376709 58.45947266 41.44384766 C52.59902669 41.18879073 46.82240825 40.71577126 41 40 C41.99 41.32 42.98 42.64 44 44 C43.34 45.32 42.68 46.64 42 48 C16.74576633 48.6630639 16.74576633 48.6630639 7 45 C6.34 44.34 5.68 43.68 5 43 C5.14922897 41.01320641 5.39458375 39.0332405 5.6875 37.0625 C6.30105262 30.74569691 5.18135851 27.04657921 2.28125 21.49609375 C-1.11139494 14.88664218 -2.29662984 7.17696825 0 0 Z " fill="#2E2E2E" transform="translate(169,217)"/>
<path d="M0 0 C3.13308733 9.399262 -0.69618694 19.36184779 -4.8125 27.9375 C-6.52007279 32.34124035 -5.48062345 35.27776596 -4.25 39.6875 C-4 42 -4 42 -5.15234375 43.5390625 C-12.06542805 49.00522218 -23.33533382 48.2833606 -31.6875 48.3125 C-33.15860229 48.32059692 -33.15860229 48.32059692 -34.65942383 48.32885742 C-41.74242508 48.25757492 -41.74242508 48.25757492 -44 46 C-43.89891683 43.06858795 -42.89335619 41.87336047 -41 39.625 C-33.61903625 33.16665672 -25.91438826 29.56679777 -16.80078125 26.18359375 C-10.80289445 23.63591993 -8.14960088 19.58338338 -5 14 C-5.64582031 14.19335938 -6.29164063 14.38671875 -6.95703125 14.5859375 C-13.65603058 16.43709737 -20.22095953 17.5152916 -27.125 18.25 C-28.38727417 18.38801025 -28.38727417 18.38801025 -29.67504883 18.52880859 C-35.74260169 19.12869915 -35.74260169 19.12869915 -38 18 C-36.4817909 13.4453727 -33.11220306 12.19210825 -29 10 C-25.65212661 8.47181153 -22.24905627 7.12715575 -18.8125 5.8125 C-17.93658203 5.47025391 -17.06066406 5.12800781 -16.15820312 4.77539062 C-14.48842913 4.12343186 -12.81681457 3.47615989 -11.14306641 2.83447266 C-9.46000053 2.17911618 -7.79449032 1.47865407 -6.13671875 0.76171875 C-4 0 -4 0 0 0 Z " fill="#303030" transform="translate(333,217)"/>
<path d="M0 0 C3.68734775 -0.08776185 7.37442347 -0.14064603 11.0625 -0.1875 C12.62000977 -0.22520508 12.62000977 -0.22520508 14.20898438 -0.26367188 C20.28188767 -0.32150905 24.66729605 0.00352826 30 3 C33.01364543 6.21455512 33.92331102 8.9646988 34.25 13.375 C33.97926023 17.30072665 33.44616236 18.96338466 31 22 C26.75862069 25 26.75862069 25 24 25 C26.55722401 32.65390819 26.55722401 32.65390819 32.3125 37.6875 C33.199375 37.790625 34.08625 37.89375 35 38 C35.38218767 39.65614657 35.71395102 41.32457024 36 43 C35 44 35 44 32.25 44.25 C28.35381665 43.95029359 26.95604868 43.57706808 24 41 C21.05148456 36.21592988 18.91704464 31.56207509 18 26 C15.36 26 12.72 26 10 26 C10 29.96 10 33.92 10 38 C11.98 38 13.96 38 16 38 C16 39.65 16 41.3 16 43 C10.72 43 5.44 43 0 43 C0 41.35 0 39.7 0 38 C1.32 38 2.64 38 4 38 C4 27.44 4 16.88 4 6 C2.68 5.67 1.36 5.34 0 5 C0 3.35 0 1.7 0 0 Z M10 6 C10 10.95 10 15.9 10 21 C18.43972786 21.42129758 18.43972786 21.42129758 26 18 C28.30260759 15.18401813 28.30260759 15.18401813 27.875 12 C26.83668465 8.44006165 26.18703543 7.78284655 23 6 C19.72283998 5.63791904 19.72283998 5.63791904 16.25 5.8125 C14.1875 5.874375 12.125 5.93625 10 6 Z " fill="#2D2D2D" transform="translate(122,295)"/>
<path d="M0 0 C3.66639248 -0.11728126 7.3322952 -0.18760891 11 -0.25 C12.02996094 -0.28351563 13.05992187 -0.31703125 14.12109375 -0.3515625 C20.38582558 -0.431368 25.98405142 -0.13815758 31 4 C33.70215766 8.50949883 33.52340841 12.87392083 33 18 C31.875 21 31.875 21 30 23 C26.8125 24.3125 26.8125 24.3125 24 25 C24.61855631 26.6274637 25.24507305 28.25190356 25.875 29.875 C26.22304688 30.77992188 26.57109375 31.68484375 26.9296875 32.6171875 C28.33683725 35.74989314 29.46639264 36.77131113 32.625 38.125 C33.40875 38.41375 34.1925 38.7025 35 39 C35 40.65 35 42.3 35 44 C30.86057237 44.41394276 28.54113785 44.30303719 24.875 42.25 C21.90785185 39.55686289 20.92030242 36.46515972 19.5625 32.75 C18.2276154 28.64452959 18.2276154 28.64452959 15.1328125 26 C12.98484961 25.6565163 12.98484961 25.6565163 10 26 C10 29.96 10 33.92 10 38 C11.65 38 13.3 38 15 38 C15.5625 39.9375 15.5625 39.9375 16 42 C15 43 15 43 11.62109375 43.09765625 C10.22652923 43.09098369 8.83198257 43.07902532 7.4375 43.0625 C6.37112305 43.05573242 6.37112305 43.05573242 5.28320312 43.04882812 C3.52209987 43.03700864 1.76103964 43.01907263 0 43 C-0.33 41.68 -0.66 40.36 -1 39 C1.475 38.505 1.475 38.505 4 38 C4 27.44 4 16.88 4 6 C2.68 5.67 1.36 5.34 0 5 C-0.33 4.01 -0.66 3.02 -1 2 C-0.67 1.34 -0.34 0.68 0 0 Z M10 6 C10 10.95 10 15.9 10 21 C16.30678192 21.29108224 20.42349264 21.02060816 26 18 C27.39935013 15.20129973 27.25265405 13.09501208 27 10 C25.45493534 7.96332385 24.27853844 7.13926922 22 6 C19.95944995 5.92934383 17.91665743 5.91578024 15.875 5.9375 C13.93625 5.958125 11.9975 5.97875 10 6 Z " fill="#2B2B2B" transform="translate(288,295)"/>
<path d="M0 0 C0.66 -0.66 1.32 -1.32 2 -2 C3.32 -1.67 4.64 -1.34 6 -1 C6 3.95 6 8.9 6 14 C2 15 2 15 0 14 C-1.07862057 12.01306737 -1.97773679 9.97274101 -2.90234375 7.91015625 C-3.99389198 5.68264809 -3.99389198 5.68264809 -7 4 C-9.29714187 3.97360171 -9.29714187 3.97360171 -11.6875 4.375 C-12.49574219 4.48585938 -13.30398437 4.59671875 -14.13671875 4.7109375 C-15.05904297 4.85402344 -15.05904297 4.85402344 -16 5 C-16.33 6.65 -16.66 8.3 -17 10 C-11.39679992 13.66363082 -5.71524593 16.66299132 0.36328125 19.47265625 C3.14490535 21.08393777 4.44976643 22.20339925 6 25 C6.80407057 29.0605564 6.93064111 33.22072831 4.98046875 36.94921875 C2.85618473 39.59976044 1.23500981 40.9216634 -2 42 C-16.59803821 43.18683237 -16.59803821 43.18683237 -20.875 39.6875 C-23.68466128 36.13410486 -24.12619224 33.70726481 -24.0625 29.3125 C-24.05347656 28.50425781 -24.04445312 27.69601562 -24.03515625 26.86328125 C-24.02355469 26.24839844 -24.01195312 25.63351562 -24 25 C-22.33388095 24.957279 -20.66617115 24.95936168 -19 25 C-18 26 -18 26 -17.75 29.375 C-17.3459044 33.03940053 -17.3459044 33.03940053 -14.9375 35 C-10.76743461 36.41959673 -8.30921841 35.97304932 -4 35 C-1.84434083 33.93281702 -1.84434083 33.93281702 -1 32 C-0.80393655 29.53331001 -0.80393655 29.53331001 -2 27 C-4.60215085 25.43158031 -6.98577849 24.19718044 -9.75 23 C-15.56495309 20.42719701 -20.99468242 18.01063517 -24 12 C-24.44741874 2.75334608 -24.44741874 2.75334608 -22 0 C-14.31005782 -4.16013265 -7.68661111 -3.76487075 0 0 Z " fill="#2B2B2B" transform="translate(232,297)"/>
<path d="M0 0 C5.50128432 5.23292899 7.17119732 11.01746027 7.59765625 18.49609375 C7.50739422 26.04801679 6.8707961 33.68684589 1.5625 39.4375 C-3.63622028 42.94361368 -9.40811605 43.84117234 -15.58203125 43.22265625 C-20.60285961 42.21465056 -23.92796359 40.27350492 -27.4375 36.4375 C-31.74385613 28.79981176 -31.41565972 19.11897771 -29.96875 10.71484375 C-28.42907844 5.22518145 -26.24319027 2.48726498 -21.4375 -0.5625 C-14.43705707 -3.58229891 -6.87643956 -3.12565434 0 0 Z M-22.4375 9.4375 C-25.32203505 17.18019934 -25.19730662 23.89358877 -22.3359375 31.51953125 C-21.06726507 34.2278711 -20.22377348 35.26433222 -17.4375 36.4375 C-13.12080014 37.45795813 -9.72152226 37.96785702 -5.5625 36.25 C-2.4136901 33.56425038 -0.74897383 31.37192148 0.5625 27.4375 C0.70898082 25.16986426 0.7834626 22.89717634 0.8125 20.625 C0.83828125 19.42230469 0.8640625 18.21960938 0.890625 16.98046875 C0.39822133 11.66368154 -1.18174844 8.49791243 -5.25 5.0625 C-11.846847 1.69940153 -17.99677434 3.51653245 -22.4375 9.4375 Z " fill="#2B2B2B" transform="translate(381.4375,296.5625)"/>
<path d="M0 0 C4.55926622 3.86846831 7.23433888 7.78928481 8.0625 13.75 C8.59935765 21.57681942 9.02928998 29.71456117 5.0625 36.75 C1.11030768 41.06983812 -3.08088589 43.36995349 -8.9375 43.75 C-14.35317024 43.40491828 -19.21712815 42.69796 -24 40.0625 C-28.97046921 34.13000449 -29.43648212 28.26301457 -29.375 20.8125 C-29.39498047 19.95720703 -29.41496094 19.10191406 -29.43554688 18.22070312 C-29.43102693 12.29505784 -28.37859309 7.65516975 -24.9375 2.75 C-17.767264 -3.1997703 -8.49964724 -3.61687117 0 0 Z M-19.9375 7.75 C-22.63343093 12.2111238 -23.34663755 15.56109215 -23.3125 20.75 C-23.32023438 21.925625 -23.32796875 23.10125 -23.3359375 24.3125 C-22.73996974 29.45418261 -21.09085337 32.67902901 -17.3125 36.1875 C-12.84841369 38.25420662 -9.60682059 38.22316203 -4.9375 36.75 C-0.36427669 33.4417108 1.04082538 30.22989114 2.0625 24.75 C2.60732036 17.99422756 1.85049931 11.18138376 -2.5625 5.75 C-9.13382329 2.98312703 -14.47963767 2.68198498 -19.9375 7.75 Z " fill="#2C2C2C" transform="translate(191.9375,296.25)"/>
<path d="M0 0 C5.54854369 -0.61650485 5.54854369 -0.61650485 8 0 C11.06679056 3.28657552 12.20803472 7.10685834 13.48046875 11.3203125 C13.80704216 12.37011795 13.80704216 12.37011795 14.14021301 13.44113159 C14.59681737 14.9141874 15.04960234 16.38843193 15.4987793 17.86376953 C16.18802187 20.12671341 16.88885948 22.38580816 17.59179688 24.64453125 C18.03453241 26.07791568 18.4766127 27.51150271 18.91796875 28.9453125 C19.12729538 29.62240265 19.33662201 30.2994928 19.55229187 30.99710083 C21 35.76596321 21 35.76596321 21 38 C22.32 38.33 23.64 38.66 25 39 C24.67 40.65 24.34 42.3 24 44 C19.38 44 14.76 44 10 44 C9.505 41.525 9.505 41.525 9 39 C11.475 38.505 11.475 38.505 14 38 C13.34 36.02 12.68 34.04 12 32 C6.72 31.67 1.44 31.34 -4 31 C-4.33 32.98 -4.66 34.96 -5 37 C-3.35 37.66 -1.7 38.32 0 39 C0 40.32 0 41.64 0 43 C-2.88415883 44.44207941 -5.41721528 44.09394887 -8.625 44.0625 C-9.81351563 44.05347656 -11.00203125 44.04445313 -12.2265625 44.03515625 C-13.14179688 44.02355469 -14.05703125 44.01195312 -15 44 C-15.33 42.35 -15.66 40.7 -16 39 C-14.02 38.505 -14.02 38.505 -12 38 C-11.7525 36.79085937 -11.505 35.58171875 -11.25 34.3359375 C-9.83982522 27.99759908 -7.91634474 21.82534728 -6 15.625 C-5.64421875 14.45066406 -5.2884375 13.27632813 -4.921875 12.06640625 C-4.57640625 10.94363281 -4.2309375 9.82085937 -3.875 8.6640625 C-3.56304687 7.64779785 -3.25109375 6.6315332 -2.9296875 5.58447266 C-2 3 -2 3 0 0 Z M4 5 C2.99263372 7.93502595 1.99539496 10.87339461 1 13.8125 C0.57074219 15.06256836 0.57074219 15.06256836 0.1328125 16.33789062 C-0.13789063 17.14033203 -0.40859375 17.94277344 -0.6875 18.76953125 C-1.06455078 19.87711792 -1.06455078 19.87711792 -1.44921875 21.00708008 C-2.13319151 23.13732879 -2.13319151 23.13732879 -2 26 C2.29 26 6.58 26 11 26 C9.02 19.07 7.04 12.14 5 5 C4.67 5 4.34 5 4 5 Z " fill="#2D2D2D" transform="translate(259,295)"/>
<path d="M0 0 C1.06122574 -0.0076664 1.06122574 -0.0076664 2.14389038 -0.01548767 C4.48867186 -0.02941741 6.83316051 -0.02842437 9.17797852 -0.02612305 C10.80461233 -0.03000823 12.43124512 -0.03434253 14.05787659 -0.03910828 C17.47009568 -0.04657783 20.88221133 -0.046274 24.29443359 -0.04101562 C28.67064037 -0.03522108 33.04642391 -0.05214781 37.42256069 -0.0753603 C40.78284691 -0.09008129 44.14303083 -0.09097157 47.50334358 -0.08785057 C49.11691183 -0.08836465 50.73048568 -0.09361851 52.34402275 -0.10366249 C54.59942106 -0.11597786 56.8539903 -0.10926544 59.109375 -0.09765625 C60.39351791 -0.09828568 61.67766083 -0.0989151 63.00071716 -0.0995636 C66.11938477 0.2746582 66.11938477 0.2746582 68.05751038 1.73542786 C69.11938477 3.2746582 69.11938477 3.2746582 69.11938477 4.2746582 C68.42901123 4.31953369 67.7386377 4.36440918 67.02734375 4.41064453 C63.86950395 4.62324999 60.71334772 4.85503846 57.55688477 5.0871582 C56.47084961 5.15741211 55.38481445 5.22766602 54.26586914 5.30004883 C46.70090953 5.87489378 41.64587405 7.25952147 35.05688477 11.0246582 C31.3202618 12.61471053 30.01164951 12.44968152 26.11938477 11.2746582 C25.43102539 10.90469727 24.74266602 10.53473633 24.03344727 10.15356445 C16.55833475 6.18020023 9.6179937 5.43625361 1.29296875 4.90771484 C-0.03045532 4.82058228 -0.03045532 4.82058228 -1.38061523 4.73168945 C-2.17467773 4.69019775 -2.96874023 4.64870605 -3.78686523 4.60595703 C-5.88061523 4.2746582 -5.88061523 4.2746582 -8.88061523 2.2746582 C-6.01280041 -0.59315663 -4.01659567 0.01442012 0 0 Z " fill="#303030" transform="translate(219.880615234375,242.725341796875)"/>
<path d="M0 0 C2.74884698 8.24654095 0.09224564 16.18147926 -3 24 C-4.63671875 26.390625 -4.63671875 26.390625 -6 28 C-5.32829194 24.1936543 -4.27253436 20.64793184 -3 17 C-3.66 17 -4.32 17 -5 17 C-5.66 18.32 -6.32 19.64 -7 21 C-7 18.37886292 -6.68707555 16.49064888 -6 14 C-6.57363281 14.19335938 -7.14726562 14.38671875 -7.73828125 14.5859375 C-14.13004106 16.54517192 -20.4354782 17.54689753 -27.0625 18.25 C-28.33057495 18.38801025 -28.33057495 18.38801025 -29.62426758 18.52880859 C-35.74076254 19.12961873 -35.74076254 19.12961873 -38 18 C-36.4817909 13.4453727 -33.11220306 12.19210825 -29 10 C-25.65212661 8.47181153 -22.24905627 7.12715575 -18.8125 5.8125 C-17.93658203 5.47025391 -17.06066406 5.12800781 -16.15820312 4.77539062 C-14.48842913 4.12343186 -12.81681457 3.47615989 -11.14306641 2.83447266 C-9.46000053 2.17911618 -7.79449032 1.47865407 -6.13671875 0.76171875 C-4 0 -4 0 0 0 Z " fill="#272727" transform="translate(333,217)"/>
<path d="M0 0 C5.61 0 11.22 0 17 0 C17 1.65 17 3.3 17 5 C15.35 5 13.7 5 12 5 C12 15.89 12 26.78 12 38 C13.65 38.33 15.3 38.66 17 39 C17 40.32 17 41.64 17 43 C11.39 43 5.78 43 0 43 C0 41.68 0 40.36 0 39 C2.475 38.505 2.475 38.505 5 38 C5 27.11 5 16.22 5 5 C3.35 5 1.7 5 0 5 C0 3.35 0 1.7 0 0 Z " fill="#282828" transform="translate(327,295)"/>
<path d="M0 0 C0.66 0.66 1.32 1.32 2 2 C1.77183594 2.59425781 1.54367188 3.18851563 1.30859375 3.80078125 C-1.56377297 12.08298662 -2.06242307 18.94560562 1.82421875 26.97265625 C2.87985392 29.06457046 3.96511039 31.12565543 5.11645508 33.16650391 C7.95658867 38.30813622 9.81312779 43.26611719 8.51171875 49.2421875 C7.19908062 51.84257962 6.07238102 53.92761898 4 56 C1.375 56.125 1.375 56.125 -1 56 C-3.99079926 50.95905609 -4.56135435 46.89461314 -4.75 41.1875 C-4.78383789 40.35653809 -4.81767578 39.52557617 -4.85253906 38.66943359 C-5.27481463 25.88710356 -4.77768953 13.31855281 -1 1 C-0.67 0.67 -0.34 0.34 0 0 Z " fill="#303031" transform="translate(162,206)"/>
<path d="M0 0 C3.41156747 2.63621122 4.38440372 5.88918482 5 10 C5.54470685 17.82311732 5.96461848 25.96841251 2 33 C-1.95219232 37.31983812 -6.14338589 39.61995349 -12 40 C-17.41567024 39.65491828 -22.27962815 38.94796 -27.0625 36.3125 C-31.84256168 30.6072651 -32.42657745 25.21643278 -32.1875 18.0625 C-32.17396484 17.28326172 -32.16042969 16.50402344 -32.14648438 15.70117188 C-32.11150224 13.80047596 -32.05770959 11.90014166 -32 10 C-31.67 10 -31.34 10 -31 10 C-30.97421875 10.89460938 -30.9484375 11.78921875 -30.921875 12.7109375 C-30.56594656 20.2986847 -30.12920585 27.42779134 -26 34 C-21.22019691 37.86936441 -15.87063303 37.31325512 -10 37 C-9.67 36.34 -9.34 35.68 -9 35 C-10.65 35 -12.3 35 -14 35 C-11 33 -11 33 -8 31.9375 C-3.72446339 29.17621594 -3.14497362 25.79081067 -2 21 C-1.34 21 -0.68 21 0 21 C0.66 22.32 1.32 23.64 2 25 C4.03958153 17.75540641 3.05019658 11.11538813 1 4 C0.66172868 2.66791089 0.3270895 1.33487878 0 0 Z " fill="#212121" transform="translate(195,300)"/>
<path d="M0 0 C23.1 0 46.2 0 70 0 C70 0.99 70 1.98 70 3 C46.9 3 23.8 3 0 3 C0 2.01 0 1.02 0 0 Z " fill="#272726" transform="translate(334,354)"/>
<path d="M0 0 C23.1 0 46.2 0 70 0 C70 0.99 70 1.98 70 3 C46.9 3 23.8 3 0 3 C0 2.01 0 1.02 0 0 Z " fill="#2B2B2B" transform="translate(95,354)"/>
<path d="M0 0 C0.66 -0.66 1.32 -1.32 2 -2 C3.32 -1.67 4.64 -1.34 6 -1 C6 3.95 6 8.9 6 14 C2 15 2 15 0 14 C-1.07862057 12.01306737 -1.97773679 9.97274101 -2.90234375 7.91015625 C-3.99389198 5.68264809 -3.99389198 5.68264809 -7 4 C-9.29714187 3.97360171 -9.29714187 3.97360171 -11.6875 4.375 C-12.49574219 4.48585938 -13.30398437 4.59671875 -14.13671875 4.7109375 C-15.05904297 4.85402344 -15.05904297 4.85402344 -16 5 C-16.85974801 7.29294488 -16.85974801 7.29294488 -17 10 C-15.16641665 12.33454661 -15.16641665 12.33454661 -13 14 C-15.86724686 13.42655063 -16.8614515 13.1385485 -19 11 C-19.25 7.5 -19.25 7.5 -19 4 C-16.19609013 1.19609013 -13.88358829 1.33479209 -10 1 C-7.5625 1.4375 -7.5625 1.4375 -6 2 C-6 1.34 -6 0.68 -6 0 C-11.69369107 -1.77927846 -16.55863288 0.18621096 -22 2 C-22 1.34 -22 0.68 -22 0 C-13.72203796 -3.4854577 -8.15517621 -3.99437202 0 0 Z " fill="#232323" transform="translate(232,297)"/>
<path d="M0 0 C0.66 0.33 1.32 0.66 2 1 C2 9.25 2 17.5 2 26 C3.98 26.66 5.96 27.32 8 28 C8 29.32 8 30.64 8 32 C6.083412 32.02712153 4.1667127 32.04645097 2.25 32.0625 C0.64898437 32.07990234 0.64898437 32.07990234 -0.984375 32.09765625 C-3.53368501 32.01510087 -5.57933591 31.74617558 -8 31 C-8 30.34 -8 29.68 -8 29 C-6.68 28.67 -5.36 28.34 -4 28 C-3.25233608 24.62628425 -2.85214141 21.44040371 -2.75390625 17.98828125 C-2.72103516 17.06595703 -2.68816406 16.14363281 -2.65429688 15.19335938 C-2.59272974 13.26119921 -2.53548879 11.32889668 -2.48242188 9.39648438 C-2.44826172 8.47802734 -2.41410156 7.55957031 -2.37890625 6.61328125 C-2.34132202 5.35704956 -2.34132202 5.35704956 -2.30297852 4.07543945 C-2 2 -2 2 0 0 Z " fill="#303030" transform="translate(336,306)"/>
<path d="M0 0 C1.09860352 0.09369873 2.19720703 0.18739746 3.32910156 0.28393555 C4.5147168 0.38746338 5.70033203 0.49099121 6.921875 0.59765625 C30.49867626 2.48760206 54.1336004 1.97172316 77.671875 -0.33984375 C73.63576868 4.15583412 68.50158871 3.63463255 62.7734375 3.9765625 C60.94814738 4.06357633 59.12260323 4.14537843 57.296875 4.22265625 C56.32153809 4.26438965 55.34620117 4.30612305 54.34130859 4.34912109 C41.62541423 4.85925604 29.01229622 4.72815036 16.296875 4.22265625 C15.31025879 4.18350098 14.32364258 4.1443457 13.30712891 4.10400391 C8.36973161 3.88767678 3.43674984 3.61183712 -1.4921875 3.25 C-2.39662598 3.18546631 -3.30106445 3.12093262 -4.23291016 3.05444336 C-5.2700415 2.85927124 -5.2700415 2.85927124 -6.328125 2.66015625 C-6.658125 2.00015625 -6.988125 1.34015625 -7.328125 0.66015625 C-4.6619619 -0.6729253 -2.96702969 -0.26935325 0 0 Z " fill="#202020" transform="translate(214.328125,254.33984375)"/>
<path d="M0 0 C1.47095879 0.0001133 1.47095879 0.0001133 2.97163391 0.00022888 C4.54064705 0.00797081 4.54064705 0.00797081 6.14135742 0.01586914 C7.22188889 0.01728409 8.30242035 0.01869904 9.41569519 0.02015686 C12.85943393 0.02574459 16.30310715 0.0382949 19.74682617 0.05102539 C22.08471586 0.05604197 24.42260656 0.0606046 26.76049805 0.06469727 C32.4851297 0.07571001 38.20972325 0.09243598 43.93432617 0.11352539 C43.27432617 0.44352539 42.61432617 0.77352539 41.93432617 1.11352539 C41.93432617 1.77352539 41.93432617 2.43352539 41.93432617 3.11352539 C41.10408936 3.10828857 40.27385254 3.10305176 39.41845703 3.09765625 C15.62561627 1.09676026 15.62561627 1.09676026 -6.06567383 6.11352539 C-6.72567383 6.11352539 -7.38567383 6.11352539 -8.06567383 6.11352539 C-8.06567383 4.79352539 -8.06567383 3.47352539 -8.06567383 2.11352539 C-8.72567383 1.78352539 -9.38567383 1.45352539 -10.06567383 1.11352539 C-6.64767621 0.34190749 -3.50129232 -0.00904727 0 0 Z " fill="#262627" transform="translate(232.065673828125,170.886474609375)"/>
<path d="M0 0 C3.96 0 7.92 0 12 0 C11.67 3.96 11.34 7.92 11 12 C9.35 12 7.7 12 6 12 C4.32656552 12.29749946 2.65694085 12.62127066 1 13 C-0.45781334 8.62655999 -0.0598032 4.60484643 0 0 Z M7 3 C8 5 8 5 8 5 Z " fill="#222221" transform="translate(266,348)"/>
<path d="M0 0 C0.66 0 1.32 0 2 0 C2.66 1.65 3.32 3.3 4 5 C4.99 4.01 5.98 3.02 7 2 C7.21914062 2.55429687 7.43828125 3.10859375 7.6640625 3.6796875 C9.7787493 8.64863535 9.7787493 8.64863535 14.25 11.5 C15.1575 11.665 16.065 11.83 17 12 C17.38218767 13.65614657 17.71395102 15.32457024 18 17 C17 18 17 18 14.25 18.25 C10.35381665 17.95029359 8.95604868 17.57706808 6 15 C3.05148456 10.21592988 0.91704464 5.56207509 0 0 Z " fill="#262626" transform="translate(140,321)"/>
<path d="M0 0 C3.3 0 6.6 0 10 0 C10 1.65 10 3.3 10 5 C9.34 5 8.68 5 8 5 C8 5.66 8 6.32 8 7 C8.66 7 9.32 7 10 7 C10 8.65 10 10.3 10 12 C7.04335481 13.4783226 4.25770263 13.06032783 1 13 C-0.27832408 8.61142284 -0.06690432 4.54949399 0 0 Z " fill="#1D1E1D" transform="translate(251,348)"/>
<path d="M0 0 C6.625 -0.125 6.625 -0.125 10 1 C10.95595724 5.3018076 11.42543615 8.72369155 10 13 C9.443125 12.814375 8.88625 12.62875 8.3125 12.4375 C5.600867 11.92448835 3.65628961 12.3359276 1 13 C0.1276588 10.00519083 -0.10829766 7.36424089 -0.0625 4.25 C-0.05347656 3.45078125 -0.04445312 2.6515625 -0.03515625 1.828125 C-0.02355469 1.22484375 -0.01195312 0.6215625 0 0 Z M5 3 C5 3.66 5 4.32 5 5 C5.66 4.67 6.32 4.34 7 4 C6.34 3.67 5.68 3.34 5 3 Z " fill="#1D1D1D" transform="translate(209,348)"/>
<path d="M0 0 C1.56553116 0.03330917 1.56553116 0.03330917 3.16268921 0.06729126 C4.34376251 0.08746307 5.52483582 0.10763489 6.74169922 0.12841797 C8.02192963 0.16061432 9.30216003 0.19281067 10.6211853 0.22598267 C12.58129044 0.26352158 12.58129044 0.26352158 14.58099365 0.30181885 C18.05659835 0.36849653 21.53182357 0.44738285 25.0071106 0.52877808 C28.55279972 0.60967256 32.0987116 0.67906851 35.6446228 0.74942017 C42.60321825 0.8891818 49.56148049 1.04183692 56.5196228 1.20254517 C56.5196228 1.53254517 56.5196228 1.86254517 56.5196228 2.20254517 C42.9896228 2.53254517 29.4596228 2.86254517 15.5196228 3.20254517 C15.8496228 3.86254517 16.1796228 4.52254517 16.5196228 5.20254517 C13.58129635 5.0887262 10.6445163 4.96197965 7.7071228 4.82754517 C6.45705444 4.78113892 6.45705444 4.78113892 5.18173218 4.73379517 C4.37929077 4.69512329 3.57684937 4.65645142 2.75009155 4.61660767 C1.64250488 4.56947632 1.64250488 4.56947632 0.51254272 4.52139282 C-1.4803772 4.20254517 -1.4803772 4.20254517 -4.4803772 2.20254517 C-2.4803772 0.20254517 -2.4803772 0.20254517 0 0 Z " fill="#292928" transform="translate(215.48037719726563,242.79745483398438)"/>
<path d="M0 0 C6.625 -0.25 6.625 -0.25 10 2 C10.1875 4.4375 10.1875 4.4375 10 7 C10 7.99 10 8.98 10 10 C10 10.99 10 11.98 10 13 C9.443125 12.814375 8.88625 12.62875 8.3125 12.4375 C5.600867 11.92448835 3.65628961 12.3359276 1 13 C0.1276588 10.00519083 -0.10829766 7.36424089 -0.0625 4.25 C-0.05347656 3.45078125 -0.04445312 2.6515625 -0.03515625 1.828125 C-0.02355469 1.22484375 -0.01195312 0.6215625 0 0 Z M4 3 C4 3.66 4 4.32 4 5 C4.99 4.67 5.98 4.34 7 4 C6.01 3.67 5.02 3.34 4 3 Z " fill="#1B1B1B" transform="translate(236,348)"/>
<path d="M0 0 C1.85546875 0.2265625 1.85546875 0.2265625 4 1 C5.30078125 2.9609375 5.30078125 2.9609375 6.3125 5.375 C6.65925781 6.16648437 7.00601563 6.95796875 7.36328125 7.7734375 C8 10 8 10 7 13 C4.5625 12.625 4.5625 12.625 2 12 C1.67 11.34 1.34 10.68 1 10 C0.67 10.99 0.34 11.98 0 13 C-1.65 12.67 -3.3 12.34 -5 12 C-4.54738642 10.56068883 -4.08767021 9.12361001 -3.625 7.6875 C-3.24214844 6.48673828 -3.24214844 6.48673828 -2.8515625 5.26171875 C-2 3 -2 3 0 0 Z " fill="#1E1E1E" transform="translate(197,348)"/>
<path d="M0 0 C6.93 0.495 6.93 0.495 14 1 C13.67 2.65 13.34 4.3 13 6 C13.61900614 7.95716897 13.61900614 7.95716897 14.80078125 9.69921875 C15.20103516 10.35083984 15.60128906 11.00246094 16.01367188 11.67382812 C16.44228516 12.33833984 16.87089844 13.00285156 17.3125 13.6875 C17.72951172 14.36361328 18.14652344 15.03972656 18.57617188 15.73632812 C20.22514097 18.37941256 21.79066891 20.79066891 24 23 C24 23.99 24 24.98 24 26 C23.34 26 22.68 26 22 26 C20.35 23.03 18.7 20.06 17 17 C15.06201737 19.77260299 15.06201737 19.77260299 14 22 C11.69 20.02 9.38 18.04 7 16 C7.33 15.01 7.66 14.02 8 13 C9.65 13.99 11.3 14.98 13 16 C12.34 14.02 11.68 12.04 11 10 C11.99 10.66 12.98 11.32 14 12 C13.34 10.906875 12.68 9.81375 12 8.6875 C10.41535071 6.06292462 10 5.1743622 10 2 C6.7 1.67 3.4 1.34 0 1 C0 0.67 0 0.34 0 0 Z " fill="#232324" transform="translate(282,172)"/>
<path d="M0 0 C0.99 0.33 1.98 0.66 3 1 C2.67 1.66 2.34 2.32 2 3 C3.32 3.33 4.64 3.66 6 4 C6.66 6.64 7.32 9.28 8 12 C7.34 12 6.68 12 6 12 C5.34 10.35 4.68 8.7 4 7 C2.35 12.28 0.7 17.56 -1 23 C-1.66 22.34 -2.32 21.68 -3 21 C-2.7834375 20.31292969 -2.566875 19.62585938 -2.34375 18.91796875 C-2.0653125 18.01691406 -1.786875 17.11585938 -1.5 16.1875 C-1.2215625 15.29417969 -0.943125 14.40085937 -0.65625 13.48046875 C0.12788351 10.94426605 0.12788351 10.94426605 0 8 C-0.66 7.67 -1.32 7.34 -2 7 C-2.0825 7.9075 -2.165 8.815 -2.25 9.75 C-3.10167638 15.76110722 -4.64426041 23.64426041 -9 28 C-7.6893114 21.668171 -6.01923958 15.61859223 -3.9375 9.5 C-3.5343457 8.28570312 -3.5343457 8.28570312 -3.12304688 7.046875 C-1.13384956 1.13384956 -1.13384956 1.13384956 0 0 Z " fill="#252525" transform="translate(259,295)"/>
<path d="M0 0 C1.65 0.33 3.3 0.66 5 1 C5.99 4.63 6.98 8.26 8 12 C6.68 12.33 5.36 12.66 4 13 C3.67 11.68 3.34 10.36 3 9 C2.34 9 1.68 9 1 9 C1 10.32 1 11.64 1 13 C-0.65 12.67 -2.3 12.34 -4 12 C-3.52309796 10.37433394 -3.04340334 8.74948689 -2.5625 7.125 C-2.29566406 6.22007812 -2.02882813 5.31515625 -1.75390625 4.3828125 C-1 2 -1 2 0 0 Z " fill="#1C1C1C" transform="translate(301,348)"/>
<path d="M0 0 C4.77378731 5.39645522 4.32708275 12.15642248 4 19 C3.5 22.0625 3.5 22.0625 3 24 C2.01 24 1.02 24 0 24 C-0.82895125 20.44000782 -1.05767878 17.27216486 -0.9375 13.625 C-0.88088791 8.97651815 -1.44770038 5.36584269 -3 1 C-2.01 0.67 -1.02 0.34 0 0 Z " fill="#323232" transform="translate(195,302)"/>
<path d="M0 0 C0.66 0.66 1.32 1.32 2 2 C1.77183594 2.59425781 1.54367188 3.18851563 1.30859375 3.80078125 C-1.70446229 12.48865136 -1.47929236 20.41774552 2 29 C1.01 28.67 0.02 28.34 -1 28 C-1.33 27.01 -1.66 26.02 -2 25 C-2.02917234 28.87498404 -2.04685673 32.74993958 -2.0625 36.625 C-2.07087891 37.71941406 -2.07925781 38.81382812 -2.08789062 39.94140625 C-2.09111328 41.00488281 -2.09433594 42.06835938 -2.09765625 43.1640625 C-2.10289307 44.13811035 -2.10812988 45.1121582 -2.11352539 46.11572266 C-1.99414506 49.14875321 -1.55866724 52.01915268 -1 55 C-6.31210517 49.68789483 -4.86599078 38.18179998 -5 31 C-4.92400835 4.92400835 -4.92400835 4.92400835 0 0 Z " fill="#232323" transform="translate(162,206)"/>
<path d="M0 0 C0.7425 0.556875 1.485 1.11375 2.25 1.6875 C5.29913675 3.74675112 8.45351878 5.03672443 11.875 6.375 C18.58646441 9.10127188 24.01331348 11.98986891 28.0625 18.125 C29.00874738 21.0268253 29.17250102 22.22863395 28 25 C25 19.25 25 19.25 25 17 C22.48408847 15.66689363 19.92339005 14.54622314 17.28515625 13.484375 C16.59873047 13.20207031 15.91230469 12.91976562 15.20507812 12.62890625 C13.78547191 12.04657006 12.3609493 11.47606728 10.93164062 10.91796875 C5.86533341 8.80028082 3.13355809 6.53783364 0 2 C0 1.34 0 0.68 0 0 Z " fill="#202020" transform="translate(193,201)"/>
<path d="M0 0 C3.375 0.375 3.375 0.375 4.375 1.375 C4.41563832 3.04117115 4.417721 4.70888095 4.375 6.375 C3.055 6.375 1.735 6.375 0.375 6.375 C0.375 5.715 0.375 5.055 0.375 4.375 C-0.615 4.375 -1.605 4.375 -2.625 4.375 C-2.625 6.025 -2.625 7.675 -2.625 9.375 C-0.645 8.715 1.335 8.055 3.375 7.375 C3.045 9.025 2.715 10.675 2.375 12.375 C0.0625 13 0.0625 13 -2.625 13.375 C-5.625 11.375 -5.625 11.375 -6.5 8.5625 C-6.625 5.375 -6.625 5.375 -5.625 2.5 C-3.625 0.375 -3.625 0.375 0 0 Z " fill="#222221" transform="translate(183.625,347.625)"/>
<path d="M0 0 C0.66 0.33 1.32 0.66 2 1 C0.68 1.33 -0.64 1.66 -2 2 C-1.34 1.34 -0.68 0.68 0 0 Z M-2 3 C-2.99 3.66 -3.98 4.32 -5 5 C-4.38511719 4.97679687 -3.77023437 4.95359375 -3.13671875 4.9296875 C-2.32847656 4.91164062 -1.52023437 4.89359375 -0.6875 4.875 C0.11300781 4.85179687 0.91351563 4.82859375 1.73828125 4.8046875 C4 5 4 5 7 7 C7 7.66 7 8.32 7 9 C3.87605066 9.36388175 0.75074918 9.71444603 -2.375 10.0625 C-3.26445312 10.16626953 -4.15390625 10.27003906 -5.0703125 10.37695312 C-5.92109375 10.47041016 -6.771875 10.56386719 -7.6484375 10.66015625 C-8.43395996 10.74918213 -9.21948242 10.83820801 -10.02880859 10.92993164 C-12 11 -12 11 -14 10 C-12.84625061 6.53875184 -12.12298029 6.11687417 -9.125 4.25 C-8.42632812 3.80140625 -7.72765625 3.3528125 -7.0078125 2.890625 C-5 2 -5 2 -2 3 Z " fill="#242424" transform="translate(309,225)"/>
<path d="M0 0 C0.33 0.66 0.66 1.32 1 2 C-2.76729337 7.23602373 -5.95669443 9.24034236 -11.9375 11.4375 C-18.25205034 13.9480614 -22.18552869 16.1590908 -26 22 C-27 19 -27 19 -25.6875 16.1875 C-20.9590492 9.63916435 -12.49103242 6.54500176 -5.12890625 3.95703125 C-2.87952815 2.94584293 -1.61356102 1.84184619 0 0 Z " fill="#202020" transform="translate(308,201)"/>
<path d="M0 0 C3 3.75 3 3.75 3 6 C4.37285156 5.96519531 4.37285156 5.96519531 5.7734375 5.9296875 C6.96195313 5.91164062 8.15046875 5.89359375 9.375 5.875 C10.55835938 5.85179687 11.74171875 5.82859375 12.9609375 5.8046875 C16 6 16 6 18 8 C16.35 8 14.7 8 13 8 C13.020625 8.78375 13.04125 9.5675 13.0625 10.375 C13 13 13 13 12 15 C10.68 15 9.36 15 8 15 C7.773125 14.38125 7.54625 13.7625 7.3125 13.125 C6.14688017 10.76128418 6.14688017 10.76128418 3.4375 10 C2.633125 9.67 1.82875 9.34 1 9 C0.6278958 7.67696283 0.29369827 6.34262065 0 5 C-1.9837767 3.71563266 -1.9837767 3.71563266 -4 3 C-2.68 3 -1.36 3 0 3 C0 2.01 0 1.02 0 0 Z " fill="#2B2B2B" transform="translate(234,181)"/>
<path d="M0 0 C3.3 0 6.6 0 10 0 C10 1.65 10 3.3 10 5 C9.01 5 8.02 5 7 5 C7.33 7.31 7.66 9.62 8 12 C6.35 12.33 4.7 12.66 3 13 C2.01879536 9.94736336 2.01879536 8.05263664 3 5 C2.01 5 1.02 5 0 5 C0 3.35 0 1.7 0 0 Z " fill="#232323" transform="translate(283,348)"/>
<path d="M0 0 C1.32 0 2.64 0 4 0 C4.29132813 0.68707031 4.58265625 1.37414062 4.8828125 2.08203125 C7.50274496 7.98808864 7.50274496 7.98808864 12.3125 12.125 C13.6428125 12.558125 13.6428125 12.558125 15 13 C14.67 13.99 14.34 14.98 14 16 C8.63442637 15.39027572 6.06959937 14.06959937 2.3125 10.3125 C0.39392281 6.93214971 0.32175176 3.86102111 0 0 Z " fill="#303030" transform="translate(307,322)"/>
<path d="M0 0 C0.33 0 0.66 0 1 0 C1.02578125 0.89460938 1.0515625 1.78921875 1.078125 2.7109375 C1.43405344 10.2986847 1.87079415 17.42779134 6 24 C10.77980309 27.86936441 16.12936697 27.31325512 22 27 C22.33 26.34 22.66 25.68 23 25 C21.35 25 19.7 25 18 25 C20.91765 23.0549 22.62537285 22.54723683 26 22 C25.01 24.475 25.01 24.475 24 27 C25.32 27.33 26.64 27.66 28 28 C20.96077778 30.43665385 15.16371011 29.99221333 8 28 C3.37232343 25.45005577 1.49111534 21.96028931 0 17 C-0.33239711 14.00504457 -0.28803559 11.07083426 -0.1875 8.0625 C-0.17396484 7.28326172 -0.16042969 6.50402344 -0.14648438 5.70117188 C-0.11150224 3.80047596 -0.05770959 1.90014166 0 0 Z " fill="#232323" transform="translate(163,310)"/>
<path d="M0 0 C2 1 2 1 2.81640625 3.37890625 C6.3449852 18.43540806 7.35664298 34.6818206 5 50 C4.67 50 4.34 50 4 50 C4 40.76 4 31.52 4 22 C3.34 22 2.68 22 2 22 C2.03480469 21.40574219 2.06960938 20.81148437 2.10546875 20.19921875 C2.32959225 13.3367705 1.08227304 7.51949772 -1 1 C-0.67 0.67 -0.34 0.34 0 0 Z " fill="#1E1E1E" transform="translate(339,206)"/>
<path d="M0 0 C1.32 0.33 2.64 0.66 4 1 C4.061875 2.093125 4.12375 3.18625 4.1875 4.3125 C4.61457209 8.10255001 4.61457209 8.10255001 7.375 9.875 C10.03287217 11.05709377 10.03287217 11.05709377 13 12 C13.33 12.99 13.66 13.98 14 15 C10.62096392 15.28528447 7.3725323 15.40796762 4 15 C-0.06875819 11.30112892 0.29380252 5.21752744 0 0 Z " fill="#313131" transform="translate(209,323)"/>
<path d="M0 0 C1.98 0 3.96 0 6 0 C5.34 2.97 4.68 5.94 4 9 C4.66 9 5.32 9 6 9 C6 8.34 6 7.68 6 7 C6.99 7 7.98 7 9 7 C9.042721 8.66611905 9.04063832 10.33382885 9 12 C8 13 8 13 4.4375 13.0625 C3.303125 13.041875 2.16875 13.02125 1 13 C0.1276588 10.00519083 -0.10829766 7.36424089 -0.0625 4.25 C-0.05347656 3.45078125 -0.04445313 2.6515625 -0.03515625 1.828125 C-0.02355469 1.22484375 -0.01195312 0.6215625 0 0 Z " fill="#181A19" transform="translate(314,348)"/>
<path d="M0 0 C0.66 0.66 1.32 1.32 2 2 C0.43092177 4.89675981 -0.30868662 6.21616223 -3 8 C-9.05301445 8.85756993 -15.63379728 9.31874882 -21 6 C-20.67 5.01 -20.34 4.02 -20 3 C-15.17512033 3.93817105 -15.17512033 3.93817105 -13.15234375 4.65234375 C-10.22137013 5.1257678 -8.52040813 4.28496065 -5.8125 3.125 C-4.93207031 2.75632812 -4.05164063 2.38765625 -3.14453125 2.0078125 C-1.06593186 1.17900345 -1.06593186 1.17900345 0 0 Z " fill="#323232" transform="translate(380,330)"/>
<path d="M0 0 C5.94 0 11.88 0 18 0 C18 1.32 18 2.64 18 4 C11.73 4 5.46 4 -1 4 C-0.67 2.68 -0.34 1.36 0 0 Z " fill="#2A2B2C" transform="translate(216,189)"/>
<path d="M0 0 C0.99 0.33 1.98 0.66 3 1 C4.29156365 4.13362984 3.95466142 6.93841469 3.5625 10.25 C3.46066406 11.14203125 3.35882813 12.0340625 3.25390625 12.953125 C3.17011719 13.62859375 3.08632813 14.3040625 3 15 C1.0625 15.5625 1.0625 15.5625 -1 16 C-2 15 -2 15 -2.09765625 11.83984375 C-2.08025391 9.90818359 -2.08025391 9.90818359 -2.0625 7.9375 C-2.05347656 6.64714844 -2.04445313 5.35679687 -2.03515625 4.02734375 C-2.02355469 3.02832031 -2.01195312 2.02929688 -2 1 C-1.34 0.67 -0.68 0.34 0 0 Z " fill="#2E2E2E" transform="translate(384,309)"/>
<path d="M0 0 C5.94 0 11.88 0 18 0 C18 1.32 18 2.64 18 4 C12.06 4 6.12 4 0 4 C0 2.68 0 1.36 0 0 Z " fill="#2A2A2A" transform="translate(269,189)"/>
<path d="M0 0 C0.66 0.33 1.32 0.66 2 1 C2 5.29 2 9.58 2 14 C-2 13 -2 13 -3.25 11.125 C-4 9 -4 9 -4 6 C-4.99 5.67 -5.98 5.34 -7 5 C-7.33 4.01 -7.66 3.02 -8 2 C-7.34 1.67 -6.68 1.34 -6 1 C-3 2 -3 2 -2 4 C-1.34 2.68 -0.68 1.36 0 0 Z " fill="#313131" transform="translate(235,296)"/>
<path d="M0 0 C1.93681161 -0.08107583 3.8745934 -0.13922475 5.8125 -0.1875 C6.89144531 -0.22230469 7.97039062 -0.25710937 9.08203125 -0.29296875 C12 0 12 0 13.88671875 1.44921875 C15 3 15 3 15 4 C13.95658447 4.08302368 13.95658447 4.08302368 12.89208984 4.16772461 C9.71950822 4.42166855 6.54725817 4.67954821 3.375 4.9375 C2.28058594 5.02451172 1.18617188 5.11152344 0.05859375 5.20117188 C-1.53662109 5.33168945 -1.53662109 5.33168945 -3.1640625 5.46484375 C-4.13811035 5.543396 -5.1121582 5.62194824 -6.11572266 5.70288086 C-9.10561134 6.01087938 -12.04095922 6.47612313 -15 7 C-14.67 6.34 -14.34 5.68 -14 5 C-11.66255706 4.53193355 -9.30260921 4.17330206 -6.9375 3.875 C-5.64714844 3.70742187 -4.35679687 3.53984375 -3.02734375 3.3671875 C-1.52880859 3.18542969 -1.52880859 3.18542969 0 3 C0 2.01 0 1.02 0 0 Z " fill="#272727" transform="translate(274,243)"/>
<path d="M0 0 C0.66 0.33 1.32 0.66 2 1 C1.57576756 2.46224799 1.13509755 3.91973412 0.6875 5.375 C0.44386719 6.18710937 0.20023438 6.99921875 -0.05078125 7.8359375 C-1 10 -1 10 -4 12 C-0.04 12 3.92 12 8 12 C6.02 11.34 4.04 10.68 2 10 C2.66 9.34 3.32 8.68 4 8 C5.98 8.66 7.96 9.32 10 10 C10 11.32 10 12.64 10 14 C7.11584117 15.44207941 4.58278472 15.09394887 1.375 15.0625 C0.18648437 15.05347656 -1.00203125 15.04445313 -2.2265625 15.03515625 C-3.14179688 15.02355469 -4.05703125 15.01195312 -5 15 C-5.33 13.35 -5.66 11.7 -6 10 C-4.68 9.67 -3.36 9.34 -2 9 C-1.34 6.03 -0.68 3.06 0 0 Z " fill="#202020" transform="translate(249,324)"/>
<path d="M0 0 C0 3 0 3 -1 5 C0.32 5.66 1.64 6.32 3 7 C1.68 7.33 0.36 7.66 -1 8 C-1.04125 8.598125 -1.0825 9.19625 -1.125 9.8125 C-2.44403415 13.11008538 -4.86035807 13.59036485 -8 15 C-8.66 15.66 -9.32 16.32 -10 17 C-9.67 15.02 -9.34 13.04 -9 11 C-9.99 11.33 -10.98 11.66 -12 12 C-14.6875 11.5625 -14.6875 11.5625 -17 11 C-17 10.34 -17 9.68 -17 9 C-12.71 9 -8.42 9 -4 9 C-3.71125 7.88625 -3.4225 6.7725 -3.125 5.625 C-2 2 -2 2 0 0 Z " fill="#272727" transform="translate(270,178)"/>
<path d="M0 0 C1.8725185 3.15987497 2.34846322 5.34113615 2 9 C1.39072482 11.01822402 0.73519522 13.02416285 0 15 C-3.37817425 15.84454356 -5.67465243 16.10844919 -9 15 C-7.60804085 12.2160817 -5.84424221 12.02101003 -3 11 C-2.95101563 10.28972656 -2.90203125 9.57945312 -2.8515625 8.84765625 C-2.73941406 7.46900391 -2.73941406 7.46900391 -2.625 6.0625 C-2.55539062 5.14597656 -2.48578125 4.22945313 -2.4140625 3.28515625 C-2.27742188 2.53105469 -2.14078125 1.77695312 -2 1 C-1.34 0.67 -0.68 0.34 0 0 Z " fill="#313131" transform="translate(318,303)"/>
<path d="M0 0 C1.05404945 3.98196457 0.84098656 6.98195309 0 11 C-0.556875 10.814375 -1.11375 10.62875 -1.6875 10.4375 C-4.399133 9.92448835 -6.34371039 10.3359276 -9 11 C-8.57576756 9.53775201 -8.13509755 8.08026588 -7.6875 6.625 C-7.44386719 5.81289062 -7.20023437 5.00078125 -6.94921875 4.1640625 C-5.42384286 0.68645657 -3.69574918 0 0 0 Z " fill="#303030" transform="translate(332,219)"/>
<path d="M0 0 C0.32152515 3.53677664 0.4131192 5.3962104 -1.625 8.375 C-4.6037896 10.4131192 -6.46322336 10.32152515 -10 10 C-8.78765268 5.28531599 -6.41445146 3.52327801 -2.55859375 0.91796875 C-1 0 -1 0 0 0 Z " fill="#2F2F2F" transform="translate(197,327)"/>
<path d="M0 0 C2.31 0.66 4.62 1.32 7 2 C8.10844919 5.32534757 7.84454356 7.62182575 7 11 C5.62437146 9.71034824 4.29233607 8.37310707 3 7 C3 6.34 3 5.68 3 5 C1.68 4.34 0.36 3.68 -1 3 C-0.67 2.01 -0.34 1.02 0 0 Z " fill="#323232" transform="translate(377,297)"/>
<path d="M0 0 C4.62 0 9.24 0 14 0 C14.33 0.66 14.66 1.32 15 2 C14.01 3.485 14.01 3.485 13 5 C11.98679688 4.76603516 11.98679688 4.76603516 10.953125 4.52734375 C10.06109375 4.33269531 9.1690625 4.13804687 8.25 3.9375 C6.92742187 3.64166016 6.92742187 3.64166016 5.578125 3.33984375 C3.01320972 3.00174128 1.42908361 3.18841365 -1 4 C-0.67 2.68 -0.34 1.36 0 0 Z " fill="#333333" transform="translate(175,296)"/>
<path d="M0 0 C2.23077141 2.23077141 2.50484061 3.39211073 3.3125 6.375 C4.64608967 10.607106 6.13376197 12.6207766 10 15 C12.3543677 16.17718385 13.69940169 16.07026819 16.3125 16 C19.68901986 15.956432 22.70939388 16.15081132 26 17 C26 17.33 26 17.66 26 18 C18.21521765 19.33350438 12.49254799 19.17460535 5.6875 14.9375 C1.74486138 10.6281043 0 5.84775296 0 0 Z " fill="#212121" transform="translate(351,321)"/>
<path d="M0 0 C0.66 0.33 1.32 0.66 2 1 C1.75 3.375 1.75 3.375 1 6 C-1 7.125 -1 7.125 -3 8 C-3.33 8.99 -3.66 9.98 -4 11 C-6.475 10.01 -6.475 10.01 -9 9 C-9 8.34 -9 7.68 -9 7 C-3.25 4 -3.25 4 -1 4 C-0.67 2.68 -0.34 1.36 0 0 Z " fill="#313131" transform="translate(234,328)"/>
<path d="M0 0 C2.45823172 3.68734758 3.01242616 6.69699971 4 11 C2.68 11.33 1.36 11.66 0 12 C-0.103125 11.360625 -0.20625 10.72125 -0.3125 10.0625 C-0.539375 9.381875 -0.76625 8.70125 -1 8 C-1.99 7.67 -2.98 7.34 -4 7 C-3.34 5.68 -2.68 4.36 -2 3 C-1.34 3.33 -0.68 3.66 0 4 C0 2.68 0 1.36 0 0 Z " fill="#181A19" transform="translate(305,349)"/>
<path d="M0 0 C2.27671486 2.16829987 4.27186149 4.36664608 6 7 C6 7.99 6 8.98 6 10 C3.69 10.33 1.38 10.66 -1 11 C-0.79375 10.4225 -0.5875 9.845 -0.375 9.25 C0.08661261 6.48032433 -0.57055055 5.35438733 -2 3 C-1.34 2.01 -0.68 1.02 0 0 Z " fill="#323233" transform="translate(298,188)"/>
<path d="M0 0 C1.32 0.99 2.64 1.98 4 3 C3.34 4.65 2.68 6.3 2 8 C2.66 8 3.32 8 4 8 C4 8.66 4 9.32 4 10 C1.69 9.67 -0.62 9.34 -3 9 C-3.33 8.01 -3.66 7.02 -4 6 C-3.34 5.67 -2.68 5.34 -2 5 C-1.27840576 3.35636866 -0.60648579 1.68949614 0 0 Z " fill="#323232" transform="translate(203,189)"/>
<path d="M0 0 C0.66 0.66 1.32 1.32 2 2 C2.99 2 3.98 2 5 2 C5 2.66 5 3.32 5 4 C6.65 4 8.3 4 10 4 C9.67 4.99 9.34 5.98 9 7 C8.443125 6.814375 7.88625 6.62875 7.3125 6.4375 C4.600867 5.92448835 2.65628961 6.3359276 0 7 C-0.93423645 3.98968256 -1.04449911 3.13349732 0 0 Z " fill="#171717" transform="translate(210,354)"/>
<path d="M0 0 C1.98 0 3.96 0 6 0 C5.21302675 3.41021743 4.12880057 6.68885166 3 10 C-0.00617269 6.99382731 0.40414684 4.17618402 0 0 Z " fill="#262626" transform="translate(314,348)"/>
<path d="M0 0 C7.59 0 15.18 0 23 0 C23 0.33 23 0.66 23 1 C19.87549468 1.19645093 16.75038555 1.38063489 13.625 1.5625 C12.29082031 1.64661133 12.29082031 1.64661133 10.9296875 1.73242188 C9.65351563 1.80493164 9.65351563 1.80493164 8.3515625 1.87890625 C7.56604004 1.9260376 6.78051758 1.97316895 5.97119141 2.02172852 C4 2 4 2 2 1 C2.66 2.65 3.32 4.3 4 6 C2.68 5.67 1.36 5.34 0 5 C0 3.35 0 1.7 0 0 Z " fill="#262626" transform="translate(122,295)"/>
<path d="M0 0 C0 0.99 0 1.98 0 3 C-5.94 3.495 -5.94 3.495 -12 4 C-12 3.01 -12 2.02 -12 1 C-8.00439392 -1.83022097 -4.57262677 -0.76210446 0 0 Z " fill="#2D2D2D" transform="translate(309,232)"/>
<path d="M0 0 C1.98 0.495 1.98 0.495 4 1 C4.33 2.65 4.66 4.3 5 6 C3.35 6.33 1.7 6.66 0 7 C-0.93423645 3.98968256 -1.04449911 3.13349732 0 0 Z " fill="#161716" transform="translate(286,354)"/>
<path d="M0 0 C3.33717549 1.3809002 5.22301036 2.8201238 7 6 C6.6875 8.25 6.6875 8.25 6 10 C5.34 10 4.68 10 4 10 C3.34 8.02 2.68 6.04 2 4 C0.35 4 -1.3 4 -3 4 C-2.01 2.68 -1.02 1.36 0 0 Z " fill="#333333" transform="translate(262,295)"/>
<path d="M0 0 C0.66 0 1.32 0 2 0 C3.4606285 2.64738916 4 3.89448334 4 7 C1 9.1875 1 9.1875 -2 11 C-2.66 10.67 -3.32 10.34 -4 10 C-3.525625 9.278125 -3.05125 8.55625 -2.5625 7.8125 C-1.05847097 5.10524774 -0.43400818 3.03805725 0 0 Z " fill="#282828" transform="translate(193,321)"/>
<path d="M0 0 C0.33 0 0.66 0 1 0 C1 3.63 1 7.26 1 11 C-0.32 11.33 -1.64 11.66 -3 12 C-3.20086443 8.28400809 -3.1519437 7.22791555 -1 4 C-1 3.01 -1 2.02 -1 1 C-0.67 0.67 -0.34 0.34 0 0 Z " fill="#343434" transform="translate(386,313)"/>
<path d="M0 0 C0.66 0.66 1.32 1.32 2 2 C0.41078475 7.36095277 -1.18972938 12.70843973 -3 18 C-4.42482835 14.15296347 -3.57917819 11.22112899 -2.625 7.3125 C-2.34914062 6.15363281 -2.07328125 4.99476563 -1.7890625 3.80078125 C-1 1 -1 1 0 0 Z " fill="#0F0F0F" transform="translate(162,206)"/>
<path d="M0 0 C0.66 0.33 1.32 0.66 2 1 C1.814375 1.78375 1.62875 2.5675 1.4375 3.375 C0.74037734 5.97089775 0.74037734 5.97089775 2 8 C1.01 8 0.02 8 -1 8 C-1 7.01 -1 6.02 -1 5 C-2.65 5 -4.3 5 -6 5 C-6.33 4.34 -6.66 3.68 -7 3 C-5.5459375 2.814375 -5.5459375 2.814375 -4.0625 2.625 C-2.5465625 2.315625 -2.5465625 2.315625 -1 2 C-0.67 1.34 -0.34 0.68 0 0 Z " fill="#212121" transform="translate(244,351)"/>
<path d="M0 0 C2.97 0 5.94 0 9 0 C9 0.99 9 1.98 9 3 C5.37 3 1.74 3 -2 3 C-1.34 2.67 -0.68 2.34 0 2 C0 1.34 0 0.68 0 0 Z " fill="#252525" transform="translate(156,354)"/>
<path d="M0 0 C2.66666667 1.33333333 5.33333333 2.66666667 8 4 C8 4.99 8 5.98 8 7 C6.35 7 4.7 7 3 7 C3 6.34 3 5.68 3 5 C1.68 4.34 0.36 3.68 -1 3 C-0.67 2.01 -0.34 1.02 0 0 Z " fill="#333333" transform="translate(148,331)"/>
<path d="M0 0 C1.9375 0.6875 1.9375 0.6875 4 2 C4.75 4.625 4.75 4.625 5 7 C4.34 7 3.68 7 3 7 C2.67 7.99 2.34 8.98 2 10 C0.39644899 6.49223216 -0.22036864 3.85645121 0 0 Z " fill="#333333" transform="translate(353,322)"/>
<path d="M0 0 C0.33 0.66 0.66 1.32 1 2 C-3.43076923 7.78461538 -3.43076923 7.78461538 -6.3125 8.875 C-6.869375 8.91625 -7.42625 8.9575 -8 9 C-8 7.68 -8 6.36 -8 5 C-7.05125 4.54625 -6.1025 4.0925 -5.125 3.625 C-1.99686321 2.19761746 -1.99686321 2.19761746 0 0 Z " fill="#141413" transform="translate(308,201)"/>
<path d="M0 0 C3 3.75 3 3.75 3 6 C3.66 6 4.32 6 5 6 C5 7.32 5 8.64 5 10 C3.68 9.67 2.36 9.34 1 9 C0.87625 8.071875 0.87625 8.071875 0.75 7.125 C0.18741541 4.81562433 0.18741541 4.81562433 -2.0625 3.75 C-2.701875 3.5025 -3.34125 3.255 -4 3 C-2.68 3 -1.36 3 0 3 C0 2.01 0 1.02 0 0 Z " fill="#242424" transform="translate(234,181)"/>
<path d="M0 0 C1.98 0.66 3.96 1.32 6 2 C5.67 3.32 5.34 4.64 5 6 C2.03 5.505 2.03 5.505 -1 5 C-0.67 3.35 -0.34 1.7 0 0 Z " fill="#323232" transform="translate(224,314)"/>
<path d="M0 0 C5.8997555 5.58924205 5.8997555 5.58924205 7 9 C6.625 11.25 6.625 11.25 6 13 C3 7.25 3 7.25 3 5 C1.68 4.34 0.36 3.68 -1 3 C-0.67 2.01 -0.34 1.02 0 0 Z " fill="#161616" transform="translate(215,213)"/>
<path d="M0 0 C4.29 0 8.58 0 13 0 C8.09396701 3.67952474 6.82490317 3.29124516 1 3 C0.67 2.01 0.34 1.02 0 0 Z " fill="#202021" transform="translate(235,171)"/>
<path d="M0 0 C1.32 0 2.64 0 4 0 C4 1.65 4 3.3 4 5 C2.35 5.33 0.7 5.66 -1 6 C-0.67 4.02 -0.34 2.04 0 0 Z " fill="#282929" transform="translate(301,348)"/>
<path d="M0 0 C0.66 0.33 1.32 0.66 2 1 C0.44499019 4.81684226 -2.03595495 7.19195732 -5 10 C-4.49701212 5.59885603 -2.91227269 3.28804981 0 0 Z " fill="#151515" transform="translate(286,213)"/>
<path d="M0 0 C1.99097846 2.98646769 2.94124926 5.59687262 4 9 C2.35 9.33 0.7 9.66 -1 10 C-1.33 9.01 -1.66 8.02 -2 7 C-1.01 7 -0.02 7 1 7 C0.67 4.69 0.34 2.38 0 0 Z " fill="#151616" transform="translate(201,351)"/>
<path d="M0 0 C0.66 0.33 1.32 0.66 2 1 C2.6328125 3.28515625 2.6328125 3.28515625 3.125 6.0625 C3.29257812 6.98160156 3.46015625 7.90070313 3.6328125 8.84765625 C3.75398438 9.55792969 3.87515625 10.26820313 4 11 C3.01 11.495 3.01 11.495 2 12 C1.01 8.37 0.02 4.74 -1 1 C-0.67 0.67 -0.34 0.34 0 0 Z " fill="#0B0B0B" transform="translate(339,206)"/>
<path d="M0 0 C0.12375 0.61875 0.2475 1.2375 0.375 1.875 C0.87197356 4.19120832 0.87197356 4.19120832 3 6 C3.66 6.66 4.32 7.32 5 8 C2.625 8.125 2.625 8.125 0 8 C-0.66 7.34 -1.32 6.68 -2 6 C-1.64644564 3.73725212 -1.02455574 2.04911148 0 0 Z " fill="#242424" transform="translate(291,257)"/>
<path d="M0 0 C3.36939433 0.33693943 5.42910583 1.88819408 8 4 C1.375 4.25 1.375 4.25 -2 2 C-1.34 1.34 -0.68 0.68 0 0 Z " fill="#242422" transform="translate(213,243)"/>
<path d="M0 0 C-0.33 1.65 -0.66 3.3 -1 5 C-2.65 5.33 -4.3 5.66 -6 6 C-5.01 5.34 -4.02 4.68 -3 4 C-3.99 3.34 -4.98 2.68 -6 2 C-2.25 0 -2.25 0 0 0 Z " fill="#1A1C1B" transform="translate(187,355)"/>
<path d="M0 0 C1.98 0 3.96 0 6 0 C5.67 1.32 5.34 2.64 5 4 C3.68 3.01 2.36 2.02 1 1 C1.33 2.98 1.66 4.96 2 7 C0 4 0 4 0 0 Z " fill="#1A1A1A" transform="translate(314,348)"/>
<path d="M0 0 C0.66 0.99 1.32 1.98 2 3 C1.67 3.66 1.34 4.32 1 5 C2.32 4.67 3.64 4.34 5 4 C4.67 4.99 4.34 5.98 4 7 C2.35 6.67 0.7 6.34 -1 6 C-0.67 4.02 -0.34 2.04 0 0 Z " fill="#181918" transform="translate(267,354)"/>
<path d="M0 0 C0.33 0.66 0.66 1.32 1 2 C1.99 2.33 2.98 2.66 4 3 C3.01 3.33 2.02 3.66 1 4 C1 5.65 1 7.3 1 9 C0.67 9 0.34 9 0 9 C-0.59732819 6.23735711 -1 3.83967231 -1 1 C-0.67 0.67 -0.34 0.34 0 0 Z " fill="#181817" transform="translate(180,348)"/>
<path d="M0 0 C2.375 0.1875 2.375 0.1875 5 1 C6.3125 3.5625 6.3125 3.5625 7 6 C3.63279613 4.60667426 2.0140476 3.0210714 0 0 Z " fill="#272727" transform="translate(263,295)"/>
<path d="M0 0 C2.5 1.375 2.5 1.375 5 3 C5 3.66 5 4.32 5 5 C3.68 5.33 2.36 5.66 1 6 C-0.0625 4.125 -0.0625 4.125 -1 2 C-0.67 1.34 -0.34 0.68 0 0 Z " fill="#1F1F1F" transform="translate(202,230)"/>
<path d="M0 0 C0.33 0.99 0.66 1.98 1 3 C1.66 3.33 2.32 3.66 3 4 C2.67 5.32 2.34 6.64 2 8 C-2 3.25 -2 3.25 -2 1 C-1.34 0.67 -0.68 0.34 0 0 Z " fill="#2C2C2C" transform="translate(270,348)"/>
<path d="" fill="#0B0B0B" transform="translate(0,0)"/>
<path d="" fill="#FFFFFF" transform="translate(0,0)"/>
<path d="" fill="#FFFFFF" transform="translate(0,0)"/>
<path d="" fill="#FFFFFF" transform="translate(0,0)"/>
<path d="" fill="#FFFFFF" transform="translate(0,0)"/>
<path d="" fill="#FFFFFF" transform="translate(0,0)"/>
<path d="" fill="#FFFFFF" transform="translate(0,0)"/>
<path d="" fill="#FFFFFF" transform="translate(0,0)"/>
<path d="" fill="#FFFFFF" transform="translate(0,0)"/>
<path d="" fill="#FFFFFF" transform="translate(0,0)"/>
<path d="" fill="#FFFFFF" transform="translate(0,0)"/>
<path d="" fill="#FFFFFF" transform="translate(0,0)"/>
<path d="" fill="#FFFFFF" transform="translate(0,0)"/>
<path d="" fill="#FFFFFF" transform="translate(0,0)"/>
<path d="" fill="#FFFFFF" transform="translate(0,0)"/>
<path d="" fill="#FFFFFF" transform="translate(0,0)"/>
<path d="" fill="#FFFFFF" transform="translate(0,0)"/>
<path d="" fill="#FFFFFF" transform="translate(0,0)"/>
<path d="" fill="#FFFFFF" transform="translate(0,0)"/>
<path d="" fill="#FFFFFF" transform="translate(0,0)"/>
<path d="" fill="#FFFFFF" transform="translate(0,0)"/>
<path d="" fill="#FFFFFF" transform="translate(0,0)"/>
<path d="" fill="#FFFFFF" transform="translate(0,0)"/>
<path d="" fill="#FFFFFF" transform="translate(0,0)"/>
<path d="" fill="#FFFFFF" transform="translate(0,0)"/>
<path d="" fill="#FFFFFF" transform="translate(0,0)"/>
<path d="" fill="#FFFFFF" transform="translate(0,0)"/>
<path d="" fill="#FFFFFF" transform="translate(0,0)"/>
<path d="" fill="#FFFFFF" transform="translate(0,0)"/>
<path d="" fill="#FFFFFF" transform="translate(0,0)"/>
<path d="" fill="#FFFFFF" transform="translate(0,0)"/>
<path d="" fill="#FFFFFF" transform="translate(0,0)"/>
<path d="" fill="#000000" transform="translate(0,0)"/>
<path d="" fill="#FFFFFF" transform="translate(0,0)"/>
<path d="" fill="#FFFFFF" transform="translate(0,0)"/>
<path d="" fill="#FFFFFF" transform="translate(0,0)"/>
<path d="" fill="#FFFFFF" transform="translate(0,0)"/>
<path d="" fill="#FFFFFF" transform="translate(0,0)"/>
<path d="" fill="#FFFFFF" transform="translate(0,0)"/>
<path d="" fill="#FFFFFF" transform="translate(0,0)"/>
<path d="" fill="#FFFFFF" transform="translate(0,0)"/>
<path d="" fill="#000000" transform="translate(0,0)"/>
<path d="" fill="#FFFFFF" transform="translate(0,0)"/>
<path d="" fill="#FFFFFF" transform="translate(0,0)"/>
<path d="" fill="#FFFFFF" transform="translate(0,0)"/>
<path d="" fill="#FFFFFF" transform="translate(0,0)"/>
<path d="" fill="#FFFFFF" transform="translate(0,0)"/>
<path d="" fill="#FFFFFF" transform="translate(0,0)"/>
<path d="" fill="#FFFFFF" transform="translate(0,0)"/>
<path d="" fill="#FFFFFF" transform="translate(0,0)"/>
<path d="" fill="#080808" transform="translate(0,0)"/>
<path d="" fill="#080808" transform="translate(0,0)"/>
<path d="" fill="#FFFFFF" transform="translate(0,0)"/>
<path d="" fill="#FFFFFF" transform="translate(0,0)"/>
<path d="" fill="#FFFFFF" transform="translate(0,0)"/>
<path d="" fill="#FFFFFF" transform="translate(0,0)"/>
<path d="" fill="#FFFFFF" transform="translate(0,0)"/>
<path d="" fill="#FFFFFF" transform="translate(0,0)"/>
<path d="" fill="#FFFFFF" transform="translate(0,0)"/>
<path d="" fill="#FFFFFF" transform="translate(0,0)"/>
<path d="" fill="#FFFFFF" transform="translate(0,0)"/>
<path d="" fill="#FFFFFF" transform="translate(0,0)"/>
<path d="" fill="#FFFFFF" transform="translate(0,0)"/>
<path d="" fill="#FFFFFF" transform="translate(0,0)"/>
<path d="" fill="#FFFFFF" transform="translate(0,0)"/>
<path d="" fill="#FFFFFF" transform="translate(0,0)"/>
<path d="" fill="#FFFFFF" transform="translate(0,0)"/>
<path d="" fill="#FFFFFF" transform="translate(0,0)"/>
<path d="" fill="#FFFFFF" transform="translate(0,0)"/>
<path d="" fill="#FFFFFF" transform="translate(0,0)"/>
<path d="" fill="#FFFFFF" transform="translate(0,0)"/>
<path d="" fill="#FFFFFF" transform="translate(0,0)"/>
<path d="" fill="#FFFFFF" transform="translate(0,0)"/>
<path d="" fill="#FFFFFF" transform="translate(0,0)"/>
</svg>
